<svg xmlns="http://www.w3.org/2000/svg" viewBox="0 0 35.48 53.65"><defs><style>.cls-1{fill:#83ffe7;}.cls-2{fill:#f4f1bb;}</style></defs><title>chikai-logo-symbol-no-frame</title><g id="Layer_2" data-name="Layer 2"><g id="Layer_1-2" data-name="Layer 1"><path class="cls-1" d="M33.51,53.65a2,2,0,0,1-1.82-1.21L17.47,18.74l-11,27.05L10,43.16a2,2,0,1,1,2.38,3.15l-9.2,6.94a2,2,0,0,1-2.39,0,2,2,0,0,1-.63-2.31L15.6,12.84a2,2,0,0,1,1.82-1.24,2.24,2.24,0,0,1,1.83,1.21L35.32,50.9a2,2,0,0,1-1,2.59A1.89,1.89,0,0,1,33.51,53.65Z"/><circle class="cls-2" cx="17.47" cy="2.64" r="2.64"/><circle class="cls-1" cx="17.47" cy="39.98" r="2.64"/></g></g></svg>