<svg xmlns="http://www.w3.org/2000/svg" viewBox="0 0 326.89 92.13"><defs><style>.cls-1{fill:#fff;}</style></defs><title>chikai_logo_white_frame</title><g id="Layer_2" data-name="Layer 2"><g id="Layer_1-2" data-name="Layer 1"><path class="cls-1" d="M128.84,70.83A15,15,0,0,1,122.67,65a16.9,16.9,0,0,1-2.21-8.72V35.68a16.57,16.57,0,0,1,2.21-8.61,15,15,0,0,1,6.17-5.79,19.63,19.63,0,0,1,9.21-2.06,20,20,0,0,1,9.2,2,14.92,14.92,0,0,1,6.18,5.69,16.06,16.06,0,0,1,2.21,8.45.81.81,0,0,1-.23.6.71.71,0,0,1-.52.23l-3.82.22c-.5,0-.75-.22-.75-.67v-.22A11.12,11.12,0,0,0,147,27a14,14,0,0,0-17.81,0,11.17,11.17,0,0,0-3.37,8.47v21A11.13,11.13,0,0,0,129.14,65,14,14,0,0,0,147,65a11.12,11.12,0,0,0,3.37-8.5v-.15c0-.45.25-.67.75-.67l3.82.22c.5,0,.75.23.75.68a16.45,16.45,0,0,1-2.21,8.57,14.8,14.8,0,0,1-6.18,5.72,20,20,0,0,1-9.2,2A19.75,19.75,0,0,1,128.84,70.83Z"/><path class="cls-1" d="M196.58,19.82h3.82a.66.66,0,0,1,.75.74v50.9a.67.67,0,0,1-.75.75h-3.82a.66.66,0,0,1-.75-.75v-23c0-.2-.1-.29-.3-.29H171.65c-.2,0-.3.09-.3.29v23a.66.66,0,0,1-.74.75h-3.82a.66.66,0,0,1-.75-.75V20.56a.66.66,0,0,1,.75-.74h3.82a.65.65,0,0,1,.74.74V43.24a.27.27,0,0,0,.3.3h23.88a.27.27,0,0,0,.3-.3V20.56A.66.66,0,0,1,196.58,19.82Z"/><path class="cls-1" d="M213.5,71.46V20.56a.66.66,0,0,1,.74-.74h3.82a.66.66,0,0,1,.75.74v50.9a.66.66,0,0,1-.75.75h-3.82A.66.66,0,0,1,213.5,71.46Z"/><path class="cls-1" d="M231.38,71.46V20.56a.66.66,0,0,1,.75-.74H236a.66.66,0,0,1,.75.74V45.94a.23.23,0,0,0,.15.22.14.14,0,0,0,.22-.07l23.66-25.9a1,1,0,0,1,.89-.37H266q.45,0,.57.3a.55.55,0,0,1-.19.59L248,41.45q-.15.15,0,.45l19.91,29.41.15.38c0,.35-.22.52-.67.52h-4.34a1,1,0,0,1-.9-.45L244.41,45.71a.25.25,0,0,0-.23-.15.29.29,0,0,0-.22.08l-7.11,7.56a.5.5,0,0,0-.15.37V71.46a.66.66,0,0,1-.75.75h-3.82A.66.66,0,0,1,231.38,71.46Z"/><path class="cls-1" d="M307.8,71.61l-3-9.43a.29.29,0,0,0-.3-.22H282.13a.29.29,0,0,0-.3.22l-3,9.43a.87.87,0,0,1-.9.6h-4c-.55,0-.75-.27-.6-.82l16.54-51a.88.88,0,0,1,.9-.59h5.09a.88.88,0,0,1,.9.59l16.61,51,.08.3c0,.35-.22.52-.67.52H308.7A.87.87,0,0,1,307.8,71.61ZM283.37,57.5a.34.34,0,0,0,.26.12h19.31a.34.34,0,0,0,.26-.12.2.2,0,0,0,0-.26L293.51,26.7a.25.25,0,0,0-.23-.15.23.23,0,0,0-.22.15l-9.73,30.54A.2.2,0,0,0,283.37,57.5Z"/><path class="cls-1" d="M321.58,71.46V20.56a.66.66,0,0,1,.75-.74h3.81a.66.66,0,0,1,.75.74v50.9a.66.66,0,0,1-.75.75h-3.81A.66.66,0,0,1,321.58,71.46Z"/><path class="cls-1" d="M89.4,0H2.76A2.75,2.75,0,0,0,0,2.73V89.36a2.78,2.78,0,0,0,2.76,2.77H89.4a2.76,2.76,0,0,0,2.73-2.77V2.73A2.73,2.73,0,0,0,89.4,0ZM45.8,19.22a2.63,2.63,0,1,1-2.63,2.63A2.63,2.63,0,0,1,45.8,19.22Zm0,42.6a2.63,2.63,0,1,1,2.63-2.63A2.63,2.63,0,0,1,45.8,61.82Zm16.81,10.9a2.42,2.42,0,0,1-.79.16A2,2,0,0,1,60,71.66L45.8,38,34.81,65l3.49-2.64a2,2,0,0,1,2.4,3.13l-9.21,6.94a2,2,0,0,1-3-2.3l15.47-38.1a2,2,0,0,1,1.81-1.22A2.21,2.21,0,0,1,47.58,32L63.67,70.12A2,2,0,0,1,62.61,72.72Z"/></g></g></svg>