<svg xmlns="http://www.w3.org/2000/svg" viewBox="0 0 326.89 92.13"><defs><style>.cls-1{fill:#fff;}</style></defs><title>chikai_logo_black_frame</title><g id="Layer_2" data-name="Layer 2"><g id="Layer_1-2" data-name="Layer 1"><path d="M128.84,70.84A15,15,0,0,1,122.66,65a17,17,0,0,1-2.21-8.72V35.7a16.64,16.64,0,0,1,2.21-8.61,15,15,0,0,1,6.18-5.8,19.71,19.71,0,0,1,9.2-2.06,20,20,0,0,1,9.21,2,15,15,0,0,1,6.17,5.69,16,16,0,0,1,2.21,8.46.81.81,0,0,1-.22.6.73.73,0,0,1-.53.22l-3.81.23c-.5,0-.75-.23-.75-.68v-.22a11.12,11.12,0,0,0-3.37-8.5,14,14,0,0,0-17.81,0,11.16,11.16,0,0,0-3.37,8.46v21A11.16,11.16,0,0,0,129.14,65,14,14,0,0,0,147,65a11.11,11.11,0,0,0,3.37-8.49v-.15c0-.45.25-.68.75-.68l3.81.23c.5,0,.75.22.75.67a16.35,16.35,0,0,1-2.21,8.57,14.92,14.92,0,0,1-6.17,5.73,20.12,20.12,0,0,1-9.21,2A19.71,19.71,0,0,1,128.84,70.84Z"/><path d="M196.58,19.83h3.81a.66.66,0,0,1,.75.75v50.9a.66.66,0,0,1-.75.74h-3.81a.66.66,0,0,1-.75-.74v-23a.27.27,0,0,0-.3-.3H171.65a.27.27,0,0,0-.3.3v23a.66.66,0,0,1-.75.74h-3.82a.65.65,0,0,1-.74-.74V20.58a.66.66,0,0,1,.74-.75h3.82a.66.66,0,0,1,.75.75V43.26a.27.27,0,0,0,.3.3h23.88a.27.27,0,0,0,.3-.3V20.58A.66.66,0,0,1,196.58,19.83Z"/><path d="M213.49,71.48V20.58a.66.66,0,0,1,.75-.75h3.82a.66.66,0,0,1,.75.75v50.9a.66.66,0,0,1-.75.74h-3.82A.66.66,0,0,1,213.49,71.48Z"/><path d="M231.38,71.48V20.58a.66.66,0,0,1,.75-.75h3.81a.66.66,0,0,1,.75.75V46a.25.25,0,0,0,.15.23.15.15,0,0,0,.23-.08l23.65-25.9a1.11,1.11,0,0,1,.9-.37H266c.3,0,.49.1.56.3a.54.54,0,0,1-.19.6L248,41.46q-.15.15,0,.45l19.91,29.42.15.37c0,.35-.23.52-.68.52H263a1,1,0,0,1-.9-.45l-17.74-26a.23.23,0,0,0-.22-.15.32.32,0,0,0-.23.07l-7.11,7.56a.52.52,0,0,0-.15.38V71.48a.66.66,0,0,1-.75.74h-3.81A.66.66,0,0,1,231.38,71.48Z"/><path d="M307.8,71.63l-3-9.43a.29.29,0,0,0-.3-.23H282.13a.29.29,0,0,0-.3.23l-3,9.43a.87.87,0,0,1-.89.59h-4.05c-.55,0-.75-.27-.6-.82l16.55-51a.87.87,0,0,1,.9-.6h5.09a.87.87,0,0,1,.89.6l16.62,51,.08.3c0,.35-.23.52-.68.52h-4A.88.88,0,0,1,307.8,71.63ZM283.36,57.52a.38.38,0,0,0,.26.11h19.32a.38.38,0,0,0,.26-.11.22.22,0,0,0,0-.27l-9.72-30.53a.27.27,0,0,0-.23-.16.24.24,0,0,0-.22.16l-9.74,30.53A.22.22,0,0,0,283.36,57.52Z"/><path d="M321.57,71.48V20.58a.66.66,0,0,1,.75-.75h3.82a.66.66,0,0,1,.75.75v50.9a.66.66,0,0,1-.75.74h-3.82A.66.66,0,0,1,321.57,71.48Z"/><rect width="92.13" height="92.13" rx="0.84" ry="0.84"/><path class="cls-1" d="M61.83,72.88A2,2,0,0,1,60,71.67L45.79,38,34.81,65l3.5-2.63a2,2,0,0,1,2.38,3.15l-9.2,6.94a2,2,0,0,1-3-2.32l15.46-38.1a2,2,0,0,1,1.81-1.23A2.24,2.24,0,0,1,47.57,32L63.65,70.13a2,2,0,0,1-1,2.59A1.9,1.9,0,0,1,61.83,72.88Z"/><circle class="cls-1" cx="45.79" cy="21.87" r="2.64"/><circle class="cls-1" cx="45.79" cy="59.21" r="2.64"/></g></g></svg>