<svg xmlns="http://www.w3.org/2000/svg" viewBox="0 0 92.13 92.13"><defs><style>.cls-1{fill:#082226;opacity:0.9;}.cls-2{fill:#83ffe7;}.cls-3{fill:#f4f1bb;}</style></defs><title>chikai_logo_frame_symbol</title><g id="Layer_2" data-name="Layer 2"><g id="Layer_1-2" data-name="Layer 1"><rect class="cls-1" width="92.13" height="92.13" rx="3" ry="3"/><path class="cls-2" d="M61.83,72.88A2,2,0,0,1,60,71.67L45.79,38,34.81,65l3.5-2.63a2,2,0,0,1,2.38,3.15l-9.2,6.94a2,2,0,0,1-3-2.32l15.46-38.1a2,2,0,0,1,1.81-1.23A2.24,2.24,0,0,1,47.57,32L63.65,70.13a2,2,0,0,1-1,2.59A1.9,1.9,0,0,1,61.83,72.88Z"/><circle class="cls-3" cx="45.79" cy="21.87" r="2.64"/><circle class="cls-2" cx="45.79" cy="59.21" r="2.64"/></g></g></svg>