<svg xmlns="http://www.w3.org/2000/svg" viewBox="0 0 265.66 53.67"><defs><style>.cls-1{fill:#fff;}</style></defs><title>chikai_logo_white_no-frame</title><g id="Layer_2" data-name="Layer 2"><g id="Layer_1-2" data-name="Layer 1"><path class="cls-1" d="M67.61,51.61a15,15,0,0,1-6.18-5.84,17,17,0,0,1-2.21-8.72V16.47a16.67,16.67,0,0,1,2.21-8.61,15.11,15.11,0,0,1,6.18-5.8A19.72,19.72,0,0,1,76.82,0,20,20,0,0,1,86,2,15,15,0,0,1,92.2,7.71a16.1,16.1,0,0,1,2.21,8.46.81.81,0,0,1-.23.6.7.7,0,0,1-.52.22l-3.82.23c-.5,0-.75-.23-.75-.68v-.22a11.13,11.13,0,0,0-3.37-8.5,12.42,12.42,0,0,0-8.9-3.18,12.37,12.37,0,0,0-8.91,3.22,11.16,11.16,0,0,0-3.37,8.46v21a11.16,11.16,0,0,0,3.37,8.46A12.36,12.36,0,0,0,76.82,49a12.38,12.38,0,0,0,8.9-3.18,11.11,11.11,0,0,0,3.37-8.49v-.15c0-.45.25-.68.75-.68l3.82.23c.5,0,.75.22.75.67a16.42,16.42,0,0,1-2.21,8.57A14.89,14.89,0,0,1,86,51.65a20.08,20.08,0,0,1-9.2,2A19.6,19.6,0,0,1,67.61,51.61Z"/><path class="cls-1" d="M135.35.6h3.82a.66.66,0,0,1,.74.75v50.9a.65.65,0,0,1-.74.74h-3.82a.66.66,0,0,1-.75-.74v-23a.27.27,0,0,0-.3-.3H110.42a.27.27,0,0,0-.3.3v23a.66.66,0,0,1-.75.74h-3.81a.66.66,0,0,1-.75-.74V1.35a.66.66,0,0,1,.75-.75h3.81a.66.66,0,0,1,.75.75V24a.27.27,0,0,0,.3.3H134.3a.27.27,0,0,0,.3-.3V1.35A.66.66,0,0,1,135.35.6Z"/><path class="cls-1" d="M152.26,52.25V1.35A.66.66,0,0,1,153,.6h3.82a.66.66,0,0,1,.75.75v50.9a.66.66,0,0,1-.75.74H153A.66.66,0,0,1,152.26,52.25Z"/><path class="cls-1" d="M170.15,52.25V1.35A.66.66,0,0,1,170.9.6h3.82a.66.66,0,0,1,.75.75V26.72a.25.25,0,0,0,.15.23.15.15,0,0,0,.22-.08L199.49,1a1.11,1.11,0,0,1,.9-.37h4.34q.45,0,.57.3a.56.56,0,0,1-.19.6L186.77,22.23q-.15.15,0,.45L206.68,52.1l.15.37c0,.35-.23.52-.67.52h-4.35a1,1,0,0,1-.89-.45l-17.74-26a.25.25,0,0,0-.23-.15.29.29,0,0,0-.22.07L175.62,34a.54.54,0,0,0-.15.38V52.25a.66.66,0,0,1-.75.74H170.9A.66.66,0,0,1,170.15,52.25Z"/><path class="cls-1" d="M246.57,52.4l-3-9.43a.3.3,0,0,0-.3-.23H220.9a.3.3,0,0,0-.3.23l-3,9.43a.87.87,0,0,1-.9.59h-4c-.55,0-.75-.27-.6-.82l16.54-51a.87.87,0,0,1,.9-.6h5.09a.87.87,0,0,1,.9.6l16.61,51,.08.3c0,.35-.23.52-.68.52h-4A.87.87,0,0,1,246.57,52.4ZM222.14,38.29a.36.36,0,0,0,.26.11h19.31a.36.36,0,0,0,.26-.11.21.21,0,0,0,0-.27L232.28,7.49a.25.25,0,0,0-.23-.15.23.23,0,0,0-.22.15L222.1,38A.21.21,0,0,0,222.14,38.29Z"/><path class="cls-1" d="M260.35,52.25V1.35A.66.66,0,0,1,261.1.6h3.81a.66.66,0,0,1,.75.75v50.9a.66.66,0,0,1-.75.74H261.1A.66.66,0,0,1,260.35,52.25Z"/><path class="cls-1" d="M33.51,53.65a2,2,0,0,1-1.82-1.21L17.47,18.74l-11,27.05L10,43.16a2,2,0,1,1,2.38,3.15l-9.2,6.94a2,2,0,0,1-2.39,0,2,2,0,0,1-.63-2.31L15.6,12.84a2,2,0,0,1,1.82-1.24,2.24,2.24,0,0,1,1.83,1.21L35.32,50.9a2,2,0,0,1-1,2.59A1.89,1.89,0,0,1,33.51,53.65Z"/><circle class="cls-1" cx="17.47" cy="2.64" r="2.64"/><circle class="cls-1" cx="17.47" cy="39.98" r="2.64"/></g></g></svg>